<svg xmlns="http://www.w3.org/2000/svg" width="1280" height="720" viewBox="0 0 1280 720">

<style>
  .bg { fill: #f6f8fb; }
  .panel { fill: #ffffff; stroke: #dce3ee; stroke-width: 1.2; }
  .soft { fill: #f9fbfd; stroke: #e3e9f2; stroke-width: 1; }
  .title { font: 700 34px "Microsoft YaHei", Arial, sans-serif; fill: #172033; }
  .subtitle { font: 400 16px "Microsoft YaHei", Arial, sans-serif; fill: #65758b; }
  .label { font: 500 15px "Microsoft YaHei", Arial, sans-serif; fill: #65758b; }
  .value { font: 700 30px "Microsoft YaHei", Arial, sans-serif; fill: #172033; }
  .small { font: 400 13px "Microsoft YaHei", Arial, sans-serif; fill: #65758b; }
  .axis { stroke: #c9d3e3; stroke-width: 1; }
  .grid { stroke: #edf1f7; stroke-width: 1; }
</style>

<rect width="1280" height="720" class="bg" />
<text x="48" y="62" class="title" text-anchor="start">数据分析</text>
<text x="48" y="92" class="subtitle" text-anchor="start">多维统计：趋势、月度、品类与商品排行</text>
<rect x="48" y="124" width="560" height="250" rx="12" class="panel" /><text x="70" y="158" class="label" text-anchor="start">按日销售额趋势</text><line x1="94" y1="186.0" x2="578" y2="186.0" class="grid" /><line x1="94" y1="232.7" x2="578" y2="232.7" class="grid" /><line x1="94" y1="279.3" x2="578" y2="279.3" class="grid" /><line x1="94" y1="326.0" x2="578" y2="326.0" class="grid" /><path d="M 94.0 298.3 L 101.0 326.0 L 108.0 261.0 L 115.0 281.4 L 122.1 287.8 L 129.1 196.4 L 136.1 294.5 L 143.1 291.8 L 150.1 300.6 L 157.1 255.6 L 164.1 283.6 L 171.2 255.7 L 178.2 303.7 L 185.2 305.9 L 192.2 279.2 L 199.2 264.6 L 206.2 288.2 L 213.2 289.9 L 220.3 260.1 L 227.3 274.2 L 234.3 282.1 L 241.3 244.9 L 248.3 296.0 L 255.3 186.0 L 262.3 290.2 L 269.4 292.6 L 276.4 280.3 L 283.4 287.6 L 290.4 269.1 L 297.4 286.4 L 304.4 258.4 L 311.4 293.0 L 318.5 283.2 L 325.5 297.3 L 332.5 273.6 L 339.5 265.7 L 346.5 243.9 L 353.5 247.9 L 360.6 275.0 L 367.6 278.1 L 374.6 291.4 L 381.6 294.8 L 388.6 249.0 L 395.6 244.8 L 402.6 272.1 L 409.7 308.3 L 416.7 267.2 L 423.7 289.1 L 430.7 282.9 L 437.7 241.4 L 444.7 262.8 L 451.7 260.8 L 458.8 303.2 L 465.8 274.7 L 472.8 298.0 L 479.8 301.6 L 486.8 281.4 L 493.8 287.9 L 500.8 281.0 L 507.9 276.1 L 514.9 310.8 L 521.9 315.9 L 528.9 301.7 L 535.9 279.4 L 542.9 284.2 L 549.9 263.8 L 557.0 305.8 L 564.0 278.2 L 571.0 311.3 L 578.0 275.3 L 578.0 326.0 L 94.0 326.0 Z" fill="#0ea5e9" opacity="0.12" /><path d="M 94.0 298.3 L 101.0 326.0 L 108.0 261.0 L 115.0 281.4 L 122.1 287.8 L 129.1 196.4 L 136.1 294.5 L 143.1 291.8 L 150.1 300.6 L 157.1 255.6 L 164.1 283.6 L 171.2 255.7 L 178.2 303.7 L 185.2 305.9 L 192.2 279.2 L 199.2 264.6 L 206.2 288.2 L 213.2 289.9 L 220.3 260.1 L 227.3 274.2 L 234.3 282.1 L 241.3 244.9 L 248.3 296.0 L 255.3 186.0 L 262.3 290.2 L 269.4 292.6 L 276.4 280.3 L 283.4 287.6 L 290.4 269.1 L 297.4 286.4 L 304.4 258.4 L 311.4 293.0 L 318.5 283.2 L 325.5 297.3 L 332.5 273.6 L 339.5 265.7 L 346.5 243.9 L 353.5 247.9 L 360.6 275.0 L 367.6 278.1 L 374.6 291.4 L 381.6 294.8 L 388.6 249.0 L 395.6 244.8 L 402.6 272.1 L 409.7 308.3 L 416.7 267.2 L 423.7 289.1 L 430.7 282.9 L 437.7 241.4 L 444.7 262.8 L 451.7 260.8 L 458.8 303.2 L 465.8 274.7 L 472.8 298.0 L 479.8 301.6 L 486.8 281.4 L 493.8 287.9 L 500.8 281.0 L 507.9 276.1 L 514.9 310.8 L 521.9 315.9 L 528.9 301.7 L 535.9 279.4 L 542.9 284.2 L 549.9 263.8 L 557.0 305.8 L 564.0 278.2 L 571.0 311.3 L 578.0 275.3" fill="none" stroke="#0ea5e9" stroke-width="3" /><text x="94" y="354" class="small" text-anchor="start">2025-09-21</text><text x="578" y="354" class="small" text-anchor="end">2026-04-16</text><rect x="640" y="124" width="592" height="250" rx="12" class="panel" /><text x="662" y="158" class="label" text-anchor="start">月度销售趋势</text><line x1="686" y1="186.0" x2="1202" y2="186.0" class="grid" /><line x1="686" y1="232.7" x2="1202" y2="232.7" class="grid" /><line x1="686" y1="279.3" x2="1202" y2="279.3" class="grid" /><line x1="686" y1="326.0" x2="1202" y2="326.0" class="grid" /><path d="M 686.0 326.0 L 759.7 204.6 L 833.4 203.5 L 907.1 202.5 L 980.9 186.0 L 1054.6 217.0 L 1128.3 213.8 L 1202.0 289.0 L 1202.0 326.0 L 686.0 326.0 Z" fill="#f97316" opacity="0.12" /><path d="M 686.0 326.0 L 759.7 204.6 L 833.4 203.5 L 907.1 202.5 L 980.9 186.0 L 1054.6 217.0 L 1128.3 213.8 L 1202.0 289.0" fill="none" stroke="#f97316" stroke-width="3" /><text x="686" y="354" class="small" text-anchor="start">2025-09</text><text x="1202" y="354" class="small" text-anchor="end">2026-04</text><rect x="48" y="410" width="560" height="250" rx="12" class="panel" /><text x="70" y="444" class="label" text-anchor="start">品类销量对比</text><line x1="90" y1="614" x2="574" y2="614" class="axis" /><rect x="90.0" y="472.0" width="69.0" height="142.0" rx="6" fill="#16a34a" opacity="0.95" /><text x="124.5" y="640" class="small" text-anchor="middle">食品饮料</text><rect x="173.0" y="543.4" width="69.0" height="70.6" rx="6" fill="#16a34a" opacity="0.70" /><text x="207.5" y="640" class="small" text-anchor="middle">个护美妆</text><rect x="256.0" y="550.9" width="69.0" height="63.1" rx="6" fill="#16a34a" opacity="0.67" /><text x="290.5" y="640" class="small" text-anchor="middle">纸品家清</text><rect x="339.0" y="573.1" width="69.0" height="40.9" rx="6" fill="#16a34a" opacity="0.59" /><text x="373.5" y="640" class="small" text-anchor="middle">日用清洁</text><rect x="422.0" y="560.2" width="69.0" height="53.8" rx="6" fill="#16a34a" opacity="0.64" /><text x="456.5" y="640" class="small" text-anchor="middle">厨房用品</text><rect x="505.0" y="583.0" width="69.0" height="31.0" rx="6" fill="#16a34a" opacity="0.56" /><text x="539.5" y="640" class="small" text-anchor="middle">家居收纳</text><rect x="640" y="410" width="592" height="250" rx="12" class="panel" /><text x="662" y="444" class="label" text-anchor="start">畅销商品排行</text><text x="664" y="492" class="small" text-anchor="start">饮料</text><rect x="795" y="479" width="382.0" height="16" rx="8" fill="#7c3aed" opacity="0.76" /><text x="1187.0" y="492" class="small" text-anchor="start">59,872</text><text x="664" y="523" class="small" text-anchor="start">米面</text><rect x="795" y="510" width="361.9" height="16" rx="8" fill="#7c3aed" opacity="0.76" /><text x="1166.9467864778194" y="523" class="small" text-anchor="start">56,729</text><text x="664" y="554" class="small" text-anchor="start">矿泉水</text><rect x="795" y="541" width="321.3" height="16" rx="8" fill="#7c3aed" opacity="0.76" /><text x="1126.2980358097275" y="554" class="small" text-anchor="start">50,358</text><text x="664" y="585" class="small" text-anchor="start">牙膏-便携装</text><rect x="795" y="572" width="283.5" height="16" rx="8" fill="#7c3aed" opacity="0.76" /><text x="1088.450227151256" y="585" class="small" text-anchor="start">44,426</text><text x="664" y="616" class="small" text-anchor="start">垃圾袋</text><rect x="795" y="603" width="233.1" height="16" rx="8" fill="#7c3aed" opacity="0.76" /><text x="1038.0651723677179" y="616" class="small" text-anchor="start">36,529</text><text x="664" y="647" class="small" text-anchor="start">沐浴露-家庭装</text><rect x="795" y="634" width="207.0" height="16" rx="8" fill="#7c3aed" opacity="0.76" /><text x="1011.9506948156067" y="647" class="small" text-anchor="start">32,436</text><text x="664" y="678" class="small" text-anchor="start">饮料</text><rect x="795" y="665" width="196.2" height="16" rx="8" fill="#7c3aed" opacity="0.76" /><text x="1001.2445884553715" y="678" class="small" text-anchor="start">30,758</text><text x="664" y="709" class="small" text-anchor="start">饮料-标准装</text><rect x="795" y="696" width="191.3" height="16" rx="8" fill="#7c3aed" opacity="0.76" /><text x="996.3253941742383" y="709" class="small" text-anchor="start">29,987</text>
</svg>
