<svg xmlns="http://www.w3.org/2000/svg" width="1280" height="720" viewBox="0 0 1280 720">

<style>
  .bg { fill: #f6f8fb; }
  .panel { fill: #ffffff; stroke: #dce3ee; stroke-width: 1.2; }
  .soft { fill: #f9fbfd; stroke: #e3e9f2; stroke-width: 1; }
  .title { font: 700 34px "Microsoft YaHei", Arial, sans-serif; fill: #172033; }
  .subtitle { font: 400 16px "Microsoft YaHei", Arial, sans-serif; fill: #65758b; }
  .label { font: 500 15px "Microsoft YaHei", Arial, sans-serif; fill: #65758b; }
  .value { font: 700 30px "Microsoft YaHei", Arial, sans-serif; fill: #172033; }
  .small { font: 400 13px "Microsoft YaHei", Arial, sans-serif; fill: #65758b; }
  .axis { stroke: #c9d3e3; stroke-width: 1; }
  .grid { stroke: #edf1f7; stroke-width: 1; }
</style>

<rect width="1280" height="720" class="bg" />
<text x="48" y="62" class="title" text-anchor="start">销售预测</text>
<text x="48" y="92" class="subtitle" text-anchor="start">多模型对比、自动选模与预测记录落库</text>
<rect x="48" y="124" width="260" height="122" rx="12" class="panel" /><circle cx="76" cy="154" r="8" fill="#0ea5e9" /><text x="96" y="160" class="label" text-anchor="start">当前模型</text><text x="72" y="212" class="value" fill="#0ea5e9">lstm</text><rect x="332" y="124" width="260" height="122" rx="12" class="panel" /><circle cx="360" cy="154" r="8" fill="#16a34a" /><text x="380" y="160" class="label" text-anchor="start">RMSE</text><text x="356" y="212" class="value" fill="#16a34a">442.7533</text><rect x="616" y="124" width="260" height="122" rx="12" class="panel" /><circle cx="644" cy="154" r="8" fill="#7c3aed" /><text x="664" y="160" class="label" text-anchor="start">MAE</text><text x="640" y="212" class="value" fill="#7c3aed">308.1246</text><rect x="900" y="124" width="332" height="122" rx="12" class="panel" /><circle cx="928" cy="154" r="8" fill="#f97316" /><text x="948" y="160" class="label" text-anchor="start">MAPE(%)</text><text x="924" y="212" class="value" fill="#f97316">16.9745</text><rect x="48" y="282" width="1184" height="354" rx="12" class="panel" /><text x="70" y="316" class="label" text-anchor="start">历史序列与预测序列预览</text><line x1="94" y1="344.0" x2="1202" y2="344.0" class="grid" /><line x1="94" y1="425.3" x2="1202" y2="425.3" class="grid" /><line x1="94" y1="506.7" x2="1202" y2="506.7" class="grid" /><line x1="94" y1="588.0" x2="1202" y2="588.0" class="grid" /><path d="M 94.0 509.3 L 113.1 528.4 L 132.2 588.0 L 151.3 578.0 L 170.4 536.4 L 189.5 474.1 L 208.6 510.0 L 227.7 441.2 L 246.8 487.2 L 265.9 533.2 L 285.0 507.2 L 304.1 516.8 L 323.2 344.0 L 342.3 552.3 L 361.4 413.8 L 380.6 473.5 L 399.7 542.6 L 418.8 556.4 L 437.9 459.4 L 457.0 419.2 L 476.1 533.4 L 495.2 444.2 L 514.3 458.1 L 533.4 533.3 L 552.5 498.6 L 571.6 445.5 L 590.7 460.7 L 609.8 477.6 L 628.9 476.2 L 648.0 459.9 L 667.1 378.5 L 686.2 496.9 L 705.3 466.3 L 724.4 368.8 L 743.5 502.5 L 762.6 489.7 L 781.7 493.5 L 800.8 488.6 L 819.9 380.0 L 839.0 401.3 L 858.1 447.8 L 877.2 524.7 L 896.3 480.0 L 915.4 476.6 L 934.6 440.3 L 953.7 483.5 L 972.8 483.3 L 991.9 483.2 L 1011.0 483.2 L 1030.1 483.2 L 1049.2 483.2 L 1068.3 483.2 L 1087.4 483.2 L 1106.5 483.2 L 1125.6 483.2 L 1144.7 483.2 L 1163.8 483.2 L 1182.9 483.2 L 1202.0 483.2 L 1202.0 588.0 L 94.0 588.0 Z" fill="#dc2626" opacity="0.12" /><path d="M 94.0 509.3 L 113.1 528.4 L 132.2 588.0 L 151.3 578.0 L 170.4 536.4 L 189.5 474.1 L 208.6 510.0 L 227.7 441.2 L 246.8 487.2 L 265.9 533.2 L 285.0 507.2 L 304.1 516.8 L 323.2 344.0 L 342.3 552.3 L 361.4 413.8 L 380.6 473.5 L 399.7 542.6 L 418.8 556.4 L 437.9 459.4 L 457.0 419.2 L 476.1 533.4 L 495.2 444.2 L 514.3 458.1 L 533.4 533.3 L 552.5 498.6 L 571.6 445.5 L 590.7 460.7 L 609.8 477.6 L 628.9 476.2 L 648.0 459.9 L 667.1 378.5 L 686.2 496.9 L 705.3 466.3 L 724.4 368.8 L 743.5 502.5 L 762.6 489.7 L 781.7 493.5 L 800.8 488.6 L 819.9 380.0 L 839.0 401.3 L 858.1 447.8 L 877.2 524.7 L 896.3 480.0 L 915.4 476.6 L 934.6 440.3 L 953.7 483.5 L 972.8 483.3 L 991.9 483.2 L 1011.0 483.2 L 1030.1 483.2 L 1049.2 483.2 L 1068.3 483.2 L 1087.4 483.2 L 1106.5 483.2 L 1125.6 483.2 L 1144.7 483.2 L 1163.8 483.2 L 1182.9 483.2 L 1202.0 483.2" fill="none" stroke="#dc2626" stroke-width="3" /><text x="94" y="616" class="small" text-anchor="start">2026-03-03</text><text x="1202" y="616" class="small" text-anchor="end">2026-04-30</text><text x="48" y="674" class="subtitle" text-anchor="start">支持移动平均、指数平滑、ARIMA、线性回归、随机森林、LSTM 与自动选模。</text>
</svg>
