<svg xmlns="http://www.w3.org/2000/svg" width="1280" height="720" viewBox="0 0 1280 720">

<style>
  .bg { fill: #f6f8fb; }
  .panel { fill: #ffffff; stroke: #dce3ee; stroke-width: 1.2; }
  .soft { fill: #f9fbfd; stroke: #e3e9f2; stroke-width: 1; }
  .title { font: 700 34px "Microsoft YaHei", Arial, sans-serif; fill: #172033; }
  .subtitle { font: 400 16px "Microsoft YaHei", Arial, sans-serif; fill: #65758b; }
  .label { font: 500 15px "Microsoft YaHei", Arial, sans-serif; fill: #65758b; }
  .value { font: 700 30px "Microsoft YaHei", Arial, sans-serif; fill: #172033; }
  .small { font: 400 13px "Microsoft YaHei", Arial, sans-serif; fill: #65758b; }
  .axis { stroke: #c9d3e3; stroke-width: 1; }
  .grid { stroke: #edf1f7; stroke-width: 1; }
</style>

<rect width="1280" height="720" class="bg" />
<text x="48" y="62" class="title" text-anchor="start">日用百货电商销售数据分析与预测系统</text>
<text x="48" y="92" class="subtitle" text-anchor="start">看板首页预览：KPI、销售趋势与品类结构</text>
<rect x="48" y="124" width="220" height="122" rx="12" class="panel" /><circle cx="76" cy="154" r="8" fill="#0ea5e9" /><text x="96" y="160" class="label" text-anchor="start">总销售额</text><text x="72" y="212" class="value" fill="#0ea5e9">89.55 万</text><rect x="292" y="124" width="220" height="122" rx="12" class="panel" /><circle cx="320" cy="154" r="8" fill="#16a34a" /><text x="340" y="160" class="label" text-anchor="start">总销量</text><text x="316" y="212" class="value" fill="#16a34a">854,429</text><rect x="536" y="124" width="220" height="122" rx="12" class="panel" /><circle cx="564" cy="154" r="8" fill="#7c3aed" /><text x="584" y="160" class="label" text-anchor="start">销售记录</text><text x="560" y="212" class="value" fill="#7c3aed">11,089</text><rect x="780" y="124" width="220" height="122" rx="12" class="panel" /><circle cx="808" cy="154" r="8" fill="#f97316" /><text x="828" y="160" class="label" text-anchor="start">商品 / 品类</text><text x="804" y="212" class="value" fill="#f97316">72 / 6</text><rect x="1024" y="124" width="208" height="122" rx="12" class="panel" /><circle cx="1052" cy="154" r="8" fill="#dc2626" /><text x="1072" y="160" class="label" text-anchor="start">预测记录</text><text x="1048" y="212" class="value" fill="#dc2626">3</text><rect x="48" y="276" width="760" height="360" rx="12" class="panel" /><text x="70" y="310" class="label" text-anchor="start">销售趋势（按日汇总）</text><line x1="94" y1="338.0" x2="778" y2="338.0" class="grid" /><line x1="94" y1="421.3" x2="778" y2="421.3" class="grid" /><line x1="94" y1="504.7" x2="778" y2="504.7" class="grid" /><line x1="94" y1="588.0" x2="778" y2="588.0" class="grid" /><path d="M 94.0 538.5 L 103.9 588.0 L 113.8 472.0 L 123.7 508.4 L 133.7 519.8 L 143.6 356.5 L 153.5 531.7 L 163.4 526.9 L 173.3 542.6 L 183.2 462.2 L 193.1 512.3 L 203.0 462.6 L 213.0 548.2 L 222.9 552.1 L 232.8 504.4 L 242.7 478.3 L 252.6 520.5 L 262.5 523.6 L 272.4 470.3 L 282.3 495.5 L 292.3 509.7 L 302.2 443.2 L 312.1 534.5 L 322.0 338.0 L 331.9 524.1 L 341.8 528.4 L 351.7 506.3 L 361.7 519.4 L 371.6 486.4 L 381.5 517.2 L 391.4 467.2 L 401.3 529.1 L 411.2 511.7 L 421.1 536.7 L 431.0 494.4 L 441.0 480.4 L 450.9 441.5 L 460.8 448.6 L 470.7 496.9 L 480.6 502.5 L 490.5 526.3 L 500.4 532.3 L 510.3 450.6 L 520.3 442.9 L 530.2 491.8 L 540.1 556.5 L 550.0 483.1 L 559.9 522.1 L 569.8 511.1 L 579.7 436.9 L 589.7 475.1 L 599.6 471.6 L 609.5 547.3 L 619.4 496.4 L 629.3 538.0 L 639.2 544.5 L 649.1 508.3 L 659.0 519.9 L 669.0 507.6 L 678.9 498.8 L 688.8 560.8 L 698.7 569.9 L 708.6 544.5 L 718.5 504.8 L 728.4 513.3 L 738.3 476.9 L 748.3 552.0 L 758.2 502.7 L 768.1 561.8 L 778.0 497.4 L 778.0 588.0 L 94.0 588.0 Z" fill="#0ea5e9" opacity="0.12" /><path d="M 94.0 538.5 L 103.9 588.0 L 113.8 472.0 L 123.7 508.4 L 133.7 519.8 L 143.6 356.5 L 153.5 531.7 L 163.4 526.9 L 173.3 542.6 L 183.2 462.2 L 193.1 512.3 L 203.0 462.6 L 213.0 548.2 L 222.9 552.1 L 232.8 504.4 L 242.7 478.3 L 252.6 520.5 L 262.5 523.6 L 272.4 470.3 L 282.3 495.5 L 292.3 509.7 L 302.2 443.2 L 312.1 534.5 L 322.0 338.0 L 331.9 524.1 L 341.8 528.4 L 351.7 506.3 L 361.7 519.4 L 371.6 486.4 L 381.5 517.2 L 391.4 467.2 L 401.3 529.1 L 411.2 511.7 L 421.1 536.7 L 431.0 494.4 L 441.0 480.4 L 450.9 441.5 L 460.8 448.6 L 470.7 496.9 L 480.6 502.5 L 490.5 526.3 L 500.4 532.3 L 510.3 450.6 L 520.3 442.9 L 530.2 491.8 L 540.1 556.5 L 550.0 483.1 L 559.9 522.1 L 569.8 511.1 L 579.7 436.9 L 589.7 475.1 L 599.6 471.6 L 609.5 547.3 L 619.4 496.4 L 629.3 538.0 L 639.2 544.5 L 649.1 508.3 L 659.0 519.9 L 669.0 507.6 L 678.9 498.8 L 688.8 560.8 L 698.7 569.9 L 708.6 544.5 L 718.5 504.8 L 728.4 513.3 L 738.3 476.9 L 748.3 552.0 L 758.2 502.7 L 768.1 561.8 L 778.0 497.4" fill="none" stroke="#0ea5e9" stroke-width="3" /><text x="94" y="616" class="small" text-anchor="start">2025-09-21</text><text x="778" y="616" class="small" text-anchor="end">2026-04-16</text><rect x="836" y="276" width="396" height="360" rx="12" class="panel" /><text x="858" y="310" class="label" text-anchor="start">品类销售额 TOP6</text><line x1="878" y1="590" x2="1198" y2="590" class="axis" /><rect x="878.0" y="338.0" width="41.7" height="252.0" rx="6" fill="#16a34a" opacity="0.95" /><text x="898.8333333333334" y="616" class="small" text-anchor="middle">食品饮料</text><rect x="933.7" y="411.0" width="41.7" height="179.0" rx="6" fill="#16a34a" opacity="0.81" /><text x="954.5" y="616" class="small" text-anchor="middle">个护美妆</text><rect x="989.3" y="440.9" width="41.7" height="149.1" rx="6" fill="#16a34a" opacity="0.75" /><text x="1010.1666666666667" y="616" class="small" text-anchor="middle">纸品家清</text><rect x="1045.0" y="498.1" width="41.7" height="91.9" rx="6" fill="#16a34a" opacity="0.63" /><text x="1065.8333333333333" y="616" class="small" text-anchor="middle">日用清洁</text><rect x="1100.7" y="508.4" width="41.7" height="81.6" rx="6" fill="#16a34a" opacity="0.61" /><text x="1121.5" y="616" class="small" text-anchor="middle">厨房用品</text><rect x="1156.3" y="537.0" width="41.7" height="53.0" rx="6" fill="#16a34a" opacity="0.56" /><text x="1177.1666666666665" y="616" class="small" text-anchor="middle">家居收纳</text><text x="48" y="674" class="subtitle" text-anchor="start">数据覆盖：2025-09-21 至 2026-04-16，可用于看板展示、分析与预测实验。</text>
</svg>
